<svg width="36" height="36" viewBox="0 0 36 36" fill="none" xmlns="http://www.w3.org/2000/svg">
<path d="M11.9864 18.1128L19.9034 25.9473L22.3405 23.4404L16.9306 18.0869L22.2842 12.6769L19.8209 10.1958L11.9864 18.1128ZM0.610338 18.1723C0.597661 15.7513 1.04546 13.4736 1.95373 11.3395C2.86083 9.20529 4.09783 7.3465 5.66473 5.76311C7.23163 4.17971 9.07736 2.92331 11.2019 1.99391C13.3265 1.06334 15.5993 0.59172 18.0203 0.579043C20.4414 0.566366 22.719 1.01416 24.8532 1.92243C26.9874 2.82954 28.8462 4.06654 30.4295 5.63344C32.0129 7.20034 33.2699 9.04606 34.2005 11.1706C35.1299 13.2952 35.6009 15.568 35.6136 17.989C35.6263 20.4101 35.1791 22.6877 34.272 24.8219C33.3637 26.9561 32.1261 28.8149 30.5592 30.3983C28.9923 31.9816 27.1466 33.238 25.022 34.1675C22.8975 35.098 20.6247 35.5696 18.2036 35.5823C15.7826 35.595 13.5049 35.1472 11.3708 34.2389C9.23658 33.3318 7.37779 32.0948 5.7944 30.5279C4.21101 28.961 2.95461 27.1153 2.0252 24.9907C1.09464 22.8662 0.623014 20.5934 0.610338 18.1723ZM4.11066 18.154C4.13113 22.0627 5.50484 25.3663 8.2318 28.0649C10.9588 30.7634 14.2766 32.1025 18.1853 32.082C22.094 32.0615 25.3976 30.6878 28.0962 27.9609C30.7947 25.2339 32.1338 21.9161 32.1133 18.0074C32.0928 14.0987 30.7191 10.795 27.9921 8.0965C25.2652 5.39795 21.9474 4.0589 18.0387 4.07937C14.13 4.09984 10.8263 5.47355 8.12779 8.20051C5.42924 10.9275 4.0902 14.2453 4.11066 18.154Z" fill="black"/>
</svg>
