<svg width="49" height="45" viewBox="0 0 49 45" fill="none" xmlns="http://www.w3.org/2000/svg">
<path d="M43.5556 0C44.9995 0 46.3843 0.526784 47.4054 1.46447C48.4264 2.40215 49 3.67392 49 5V40C49 41.3261 48.4264 42.5979 47.4054 43.5355C46.3843 44.4732 44.9995 45 43.5556 45H5.44444C4.00049 45 2.61567 44.4732 1.59464 43.5355C0.573609 42.5979 0 41.3261 0 40V5C0 3.67392 0.573609 2.40215 1.59464 1.46447C2.61567 0.526784 4.00049 0 5.44444 0H43.5556ZM42.1944 38.75V25.5C42.1944 23.3385 41.2595 21.2655 39.5952 19.7371C37.9309 18.2087 35.6736 17.35 33.32 17.35C31.0061 17.35 28.3111 18.65 27.0044 20.6V17.825H19.4094V38.75H27.0044V26.425C27.0044 24.5 28.6922 22.925 30.7883 22.925C31.7991 22.925 32.7685 23.2937 33.4832 23.9501C34.1979 24.6065 34.5994 25.4967 34.5994 26.425V38.75H42.1944ZM10.5622 13.9C11.7751 13.9 12.9384 13.4575 13.7961 12.6698C14.6537 11.8822 15.1356 10.8139 15.1356 9.7C15.1356 7.375 13.0939 5.475 10.5622 5.475C9.34208 5.475 8.17191 5.92013 7.30914 6.71247C6.44637 7.50482 5.96167 8.57946 5.96167 9.7C5.96167 12.025 8.03056 13.9 10.5622 13.9ZM14.3461 38.75V17.825H6.80556V38.75H14.3461Z" fill="#FFFDFD"/>
</svg>
