<svg width="53" height="40" viewBox="0 0 53 40" fill="none" xmlns="http://www.w3.org/2000/svg">
<path d="M53 4.70588C51.0492 5.52941 48.9465 6.07059 46.7677 6.32941C48.9971 5.08235 50.7199 3.10588 51.5306 0.729412C49.4278 1.90588 47.097 2.72941 44.6396 3.2C42.6381 1.17647 39.826 0 36.6338 0C30.6802 0 25.816 4.51765 25.816 10.0941C25.816 10.8941 25.9173 11.6706 26.0947 12.4C17.0755 11.9765 9.04446 7.95294 3.69885 1.85882C2.76147 3.34118 2.22945 5.08235 2.22945 6.91765C2.22945 10.4235 4.12954 13.5294 7.06836 15.2941C5.2696 15.2941 3.59752 14.8235 2.12811 14.1176V14.1882C2.12811 19.0824 5.87763 23.1765 10.8432 24.0941C9.24897 24.4993 7.57529 24.5557 5.95363 24.2588C6.64174 26.2647 7.98936 28.0198 9.80707 29.2775C11.6248 30.5352 13.8212 31.2322 16.0875 31.2706C12.2458 34.0951 7.48383 35.6219 2.58413 35.6C1.72275 35.6 0.861377 35.5529 0 35.4588C4.81358 38.3294 10.5392 40 16.6702 40C36.6338 40 47.6037 24.6118 47.6037 11.2706C47.6037 10.8235 47.6037 10.4 47.5784 9.95294C49.7065 8.54118 51.5306 6.75294 53 4.70588Z" fill="white"/>
</svg>
